<svg id="SvgjsSvg1012" width="288" height="288" xmlns="http://www.w3.org/2000/svg" version="1.1" xmlns:xlink="http://www.w3.org/1999/xlink" xmlns:svgjs="http://svgjs.com/svgjs"><defs id="SvgjsDefs1013"></defs><g id="SvgjsG1014"><svg xmlns="http://www.w3.org/2000/svg" width="288" height="288" viewBox="0 0 48 48"><path d="M38 16l-8 8h6c0 6.63-5.37 12-12 12-2.03 0-3.93-.51-5.61-1.39l-2.92 2.92c2.48 1.55 5.39 2.47 8.53 2.47 8.84 0 16-7.16 16-16h6l-8-8zm-26 8c0-6.63 5.37-12 12-12 2.03 0 3.93.51 5.61 1.39l2.92-2.92c-2.48-1.55-5.39-2.47-8.53-2.47-8.84 0-16 7.16-16 16h-6l8 8 8-8h-6z" fill="#0D0D0D" class="color000 svgShape"></path><path fill="none" d="M0 0h48v48h-48z"></path></svg></g></svg>